{
    "asset" : {
        "generator" : "Khronos glTF Blender I/O v1.6.16",
        "version" : "2.0"
    },
    "scene" : 0,
    "scenes" : [
        {
            "name" : "Scene",
            "nodes" : [
                0,
                1,
                2,
                3,
                4,
                5,
                6,
                7,
                8,
                9
            ]
        }
    ],
    "nodes" : [
        {
            "mesh" : 0,
            "name" : "Cube",
            "rotation" : [
                0,
                -0.7074087262153625,
                0,
                0.7068046927452087
            ],
            "scale" : [
                3.9193031787872314,
                1,
                0.732846736907959
            ],
            "translation" : [
                -0.01717984676361084,
                0,
                -0.008462704718112946
            ]
        },
        {
            "name" : "Light",
            "rotation" : [
                0.17215408384799957,
                0.7493513226509094,
                -0.2702348530292511,
                0.5794901251792908
            ],
            "scale" : [
                1.540482521057129,
                0.9574460387229919,
                0.8780612945556641
            ],
            "translation" : [
                3.0268707275390625,
                5.903861999511719,
                2.287217140197754
            ]
        },
        {
            "name" : "Camera",
            "rotation" : [
                0.483536034822464,
                0.33687159419059753,
                -0.20870360732078552,
                0.7804827094078064
            ],
            "scale" : [
                1.2037276029586792,
                1.1363719701766968,
                1.0460931062698364
            ],
            "translation" : [
                6.138523578643799,
                4.958309173583984,
                10.221710205078125
            ]
        },
        {
            "mesh" : 1,
            "name" : "Cube.001",
            "rotation" : [
                0,
                -0.9999686479568481,
                0,
                -0.0079167690128088
            ],
            "scale" : [
                3.9193031787872314,
                1,
                0.732846736907959
            ],
            "translation" : [
                0.06881892681121826,
                0,
                -0.04402661323547363
            ]
        },
        {
            "name" : "Light.001",
            "rotation" : [
                0.17215408384799957,
                0.7493513226509094,
                -0.2702348530292511,
                0.5794901251792908
            ],
            "scale" : [
                1.540482521057129,
                0.9574460387229919,
                0.8780612945556641
            ],
            "translation" : [
                3.0268707275390625,
                5.903861999511719,
                2.287217140197754
            ]
        },
        {
            "mesh" : 2,
            "name" : "Cube.002",
            "rotation" : [
                0,
                -0.3937060534954071,
                0,
                0.919236421585083
            ],
            "scale" : [
                5.212104320526123,
                1,
                0.9745798110961914
            ],
            "translation" : [
                0.031848907470703125,
                0,
                0.00027871131896972656
            ]
        },
        {
            "name" : "Light.002",
            "rotation" : [
                0.17215408384799957,
                0.7493513226509094,
                -0.2702348530292511,
                0.5794901251792908
            ],
            "scale" : [
                1.540482521057129,
                0.9574460387229919,
                0.8780612945556641
            ],
            "translation" : [
                3.0268707275390625,
                5.903861999511719,
                2.287217140197754
            ]
        },
        {
            "mesh" : 3,
            "name" : "Cube.003",
            "rotation" : [
                0,
                -0.913966178894043,
                0,
                0.4057903587818146
            ],
            "scale" : [
                5.131444454193115,
                1,
                0.9594976902008057
            ],
            "translation" : [
                0.031848907470703125,
                0,
                0.00027871131896972656
            ]
        },
        {
            "mesh" : 4,
            "name" : "Cube.004",
            "rotation" : [
                0,
                -0.9999686479568481,
                0,
                -0.0079167690128088
            ],
            "scale" : [
                4.019338130950928,
                1,
                3.984637498855591
            ],
            "translation" : [
                0.06881892681121826,
                -0.13258010149002075,
                -0.04402661323547363
            ]
        },
        {
            "mesh" : 5,
            "name" : "aaa",
            "rotation" : [
                0,
                0.7000637650489807,
                0,
                0.7140803337097168
            ],
            "translation" : [
                0,
                1.1294453144073486,
                2.9696860313415527
            ]
        }
    ],
    "materials" : [
        {
            "doubleSided" : true,
            "name" : "Material",
            "pbrMetallicRoughness" : {
                "baseColorFactor" : [
                    0.8000000715255737,
                    0,
                    0.006297159940004349,
                    1
                ],
                "metallicFactor" : 0.5050504803657532,
                "roughnessFactor" : 0.495959609746933
            }
        },
        {
            "doubleSided" : true,
            "name" : "Material.001",
            "pbrMetallicRoughness" : {
                "baseColorFactor" : [
                    1,
                    0,
                    0.00227346527390182,
                    1
                ],
                "metallicFactor" : 0.4898989796638489,
                "roughnessFactor" : 0.5010101199150085
            }
        },
        {
            "doubleSided" : true,
            "name" : "Material.002",
            "pbrMetallicRoughness" : {
                "baseColorFactor" : [
                    1,
                    0,
                    0.002261876128613949,
                    1
                ],
                "metallicFactor" : 0.5,
                "roughnessFactor" : 0.495959609746933
            }
        },
        {
            "doubleSided" : true,
            "name" : "Material.003",
            "pbrMetallicRoughness" : {
                "baseColorFactor" : [
                    1,
                    0,
                    0.0033661057241261005,
                    1
                ],
                "metallicFactor" : 0.5,
                "roughnessFactor" : 0.495959609746933
            }
        },
        {
            "doubleSided" : true,
            "name" : "Material.004",
            "pbrMetallicRoughness" : {
                "baseColorFactor" : [
                    0,
                    0.0003824288141913712,
                    1,
                    1
                ],
                "metallicFactor" : 0.4898989796638489,
                "roughnessFactor" : 0.5010101199150085
            }
        },
        {
            "doubleSided" : true,
            "name" : "Material.005",
            "pbrMetallicRoughness" : {
                "baseColorFactor" : [
                    0.8000000715255737,
                    0.741165816783905,
                    0.6962789297103882,
                    1
                ],
                "metallicFactor" : 0.5126436948776245,
                "roughnessFactor" : 0.5195402503013611
            }
        }
    ],
    "meshes" : [
        {
            "name" : "Cube",
            "primitives" : [
                {
                    "attributes" : {
                        "POSITION" : 0,
                        "NORMAL" : 1,
                        "TEXCOORD_0" : 2
                    },
                    "indices" : 3,
                    "material" : 0
                }
            ]
        },
        {
            "name" : "Cube.001",
            "primitives" : [
                {
                    "attributes" : {
                        "POSITION" : 4,
                        "NORMAL" : 5,
                        "TEXCOORD_0" : 6
                    },
                    "indices" : 3,
                    "material" : 1
                }
            ]
        },
        {
            "name" : "Cube.002",
            "primitives" : [
                {
                    "attributes" : {
                        "POSITION" : 7,
                        "NORMAL" : 8,
                        "TEXCOORD_0" : 9
                    },
                    "indices" : 3,
                    "material" : 2
                }
            ]
        },
        {
            "name" : "Cube.003",
            "primitives" : [
                {
                    "attributes" : {
                        "POSITION" : 10,
                        "NORMAL" : 11,
                        "TEXCOORD_0" : 12
                    },
                    "indices" : 3,
                    "material" : 3
                }
            ]
        },
        {
            "name" : "Cube.004",
            "primitives" : [
                {
                    "attributes" : {
                        "POSITION" : 13,
                        "NORMAL" : 14,
                        "TEXCOORD_0" : 15
                    },
                    "indices" : 3,
                    "material" : 4
                }
            ]
        },
        {
            "name" : "Text",
            "primitives" : [
                {
                    "attributes" : {
                        "POSITION" : 16,
                        "NORMAL" : 17,
                        "TEXCOORD_0" : 18
                    },
                    "indices" : 19,
                    "material" : 5
                }
            ]
        }
    ],
    "accessors" : [
        {
            "bufferView" : 0,
            "componentType" : 5126,
            "count" : 24,
            "max" : [
                1,
                1,
                1
            ],
            "min" : [
                -1,
                -1,
                -1
            ],
            "type" : "VEC3"
        },
        {
            "bufferView" : 1,
            "componentType" : 5126,
            "count" : 24,
            "type" : "VEC3"
        },
        {
            "bufferView" : 2,
            "componentType" : 5126,
            "count" : 24,
            "type" : "VEC2"
        },
        {
            "bufferView" : 3,
            "componentType" : 5123,
            "count" : 36,
            "type" : "SCALAR"
        },
        {
            "bufferView" : 4,
            "componentType" : 5126,
            "count" : 24,
            "max" : [
                1,
                1,
                1
            ],
            "min" : [
                -1,
                -1,
                -1
            ],
            "type" : "VEC3"
        },
        {
            "bufferView" : 5,
            "componentType" : 5126,
            "count" : 24,
            "type" : "VEC3"
        },
        {
            "bufferView" : 6,
            "componentType" : 5126,
            "count" : 24,
            "type" : "VEC2"
        },
        {
            "bufferView" : 7,
            "componentType" : 5126,
            "count" : 24,
            "max" : [
                1,
                1,
                1
            ],
            "min" : [
                -1,
                -1,
                -1
            ],
            "type" : "VEC3"
        },
        {
            "bufferView" : 8,
            "componentType" : 5126,
            "count" : 24,
            "type" : "VEC3"
        },
        {
            "bufferView" : 9,
            "componentType" : 5126,
            "count" : 24,
            "type" : "VEC2"
        },
        {
            "bufferView" : 10,
            "componentType" : 5126,
            "count" : 24,
            "max" : [
                1,
                1,
                1
            ],
            "min" : [
                -1,
                -1,
                -1
            ],
            "type" : "VEC3"
        },
        {
            "bufferView" : 11,
            "componentType" : 5126,
            "count" : 24,
            "type" : "VEC3"
        },
        {
            "bufferView" : 12,
            "componentType" : 5126,
            "count" : 24,
            "type" : "VEC2"
        },
        {
            "bufferView" : 13,
            "componentType" : 5126,
            "count" : 24,
            "max" : [
                1,
                1,
                1
            ],
            "min" : [
                -1,
                -1,
                -1
            ],
            "type" : "VEC3"
        },
        {
            "bufferView" : 14,
            "componentType" : 5126,
            "count" : 24,
            "type" : "VEC3"
        },
        {
            "bufferView" : 15,
            "componentType" : 5126,
            "count" : 24,
            "type" : "VEC2"
        },
        {
            "bufferView" : 16,
            "componentType" : 5126,
            "count" : 1158,
            "max" : [
                5.697000503540039,
                0,
                0.23000000417232513
            ],
            "min" : [
                0.04800000041723251,
                0,
                -0.6910000443458557
            ],
            "type" : "VEC3"
        },
        {
            "bufferView" : 17,
            "componentType" : 5126,
            "count" : 1158,
            "type" : "VEC3"
        },
        {
            "bufferView" : 18,
            "componentType" : 5126,
            "count" : 1158,
            "type" : "VEC2"
        },
        {
            "bufferView" : 19,
            "componentType" : 5123,
            "count" : 2559,
            "type" : "SCALAR"
        }
    ],
    "bufferViews" : [
        {
            "buffer" : 0,
            "byteLength" : 288,
            "byteOffset" : 0
        },
        {
            "buffer" : 0,
            "byteLength" : 288,
            "byteOffset" : 288
        },
        {
            "buffer" : 0,
            "byteLength" : 192,
            "byteOffset" : 576
        },
        {
            "buffer" : 0,
            "byteLength" : 72,
            "byteOffset" : 768
        },
        {
            "buffer" : 0,
            "byteLength" : 288,
            "byteOffset" : 840
        },
        {
            "buffer" : 0,
            "byteLength" : 288,
            "byteOffset" : 1128
        },
        {
            "buffer" : 0,
            "byteLength" : 192,
            "byteOffset" : 1416
        },
        {
            "buffer" : 0,
            "byteLength" : 288,
            "byteOffset" : 1608
        },
        {
            "buffer" : 0,
            "byteLength" : 288,
            "byteOffset" : 1896
        },
        {
            "buffer" : 0,
            "byteLength" : 192,
            "byteOffset" : 2184
        },
        {
            "buffer" : 0,
            "byteLength" : 288,
            "byteOffset" : 2376
        },
        {
            "buffer" : 0,
            "byteLength" : 288,
            "byteOffset" : 2664
        },
        {
            "buffer" : 0,
            "byteLength" : 192,
            "byteOffset" : 2952
        },
        {
            "buffer" : 0,
            "byteLength" : 288,
            "byteOffset" : 3144
        },
        {
            "buffer" : 0,
            "byteLength" : 288,
            "byteOffset" : 3432
        },
        {
            "buffer" : 0,
            "byteLength" : 192,
            "byteOffset" : 3720
        },
        {
            "buffer" : 0,
            "byteLength" : 13896,
            "byteOffset" : 3912
        },
        {
            "buffer" : 0,
            "byteLength" : 13896,
            "byteOffset" : 17808
        },
        {
            "buffer" : 0,
            "byteLength" : 9264,
            "byteOffset" : 31704
        },
        {
            "buffer" : 0,
            "byteLength" : 5118,
            "byteOffset" : 40968
        }
    ],
    "buffers" : [
        {
            "byteLength" : 46088,
            "uri" : "data:application/octet-stream;base64,"
        }
    ]
}
