{
    "asset" : {
        "generator" : "Khronos glTF Blender I/O v1.6.16",
        "version" : "2.0"
    },
    "scene" : 0,
    "scenes" : [
        {
            "name" : "Scene",
            "nodes" : [
                0,
                1,
                2,
                3,
                4,
                5,
                6
            ]
        }
    ],
    "nodes" : [
        {
            "mesh" : 0,
            "name" : "Cube",
            "rotation" : [
                0,
                -0.7074087262153625,
                0,
                0.7068046927452087
            ],
            "scale" : [
                3.9193031787872314,
                1,
                0.732846736907959
            ],
            "translation" : [
                1.882208228111267,
                0,
                -0.09022188186645508
            ]
        },
        {
            "name" : "Light",
            "rotation" : [
                0.17215408384799957,
                0.7493513226509094,
                -0.2702348530292511,
                0.5794901251792908
            ],
            "scale" : [
                1.540482521057129,
                0.9574460387229919,
                0.8780612945556641
            ],
            "translation" : [
                3.0268707275390625,
                5.903861999511719,
                2.287217140197754
            ]
        },
        {
            "name" : "Camera",
            "rotation" : [
                0.483536034822464,
                0.33687159419059753,
                -0.20870360732078552,
                0.7804827094078064
            ],
            "scale" : [
                1.2037276029586792,
                1.1363719701766968,
                1.0460931062698364
            ],
            "translation" : [
                6.138523578643799,
                4.958309173583984,
                10.221710205078125
            ]
        },
        {
            "mesh" : 1,
            "name" : "Cube.001",
            "rotation" : [
                0,
                -0.7074087262153625,
                0,
                0.7068046927452087
            ],
            "scale" : [
                3.9193031787872314,
                1,
                0.732846736907959
            ],
            "translation" : [
                0.06881892681121826,
                0,
                -0.04402661323547363
            ]
        },
        {
            "name" : "Light.001",
            "rotation" : [
                0.17215408384799957,
                0.7493513226509094,
                -0.2702348530292511,
                0.5794901251792908
            ],
            "scale" : [
                1.540482521057129,
                0.9574460387229919,
                0.8780612945556641
            ],
            "translation" : [
                3.0268707275390625,
                5.903861999511719,
                2.287217140197754
            ]
        },
        {
            "mesh" : 2,
            "name" : "Cube.002",
            "rotation" : [
                0,
                -0.7074087262153625,
                0,
                0.7068046927452087
            ],
            "scale" : [
                3.9193031787872314,
                1,
                0.732846736907959
            ],
            "translation" : [
                -1.6703908443450928,
                0,
                0.00027871131896972656
            ]
        },
        {
            "name" : "Light.002",
            "rotation" : [
                0.17215408384799957,
                0.7493513226509094,
                -0.2702348530292511,
                0.5794901251792908
            ],
            "scale" : [
                1.540482521057129,
                0.9574460387229919,
                0.8780612945556641
            ],
            "translation" : [
                3.0268707275390625,
                5.903861999511719,
                2.287217140197754
            ]
        }
    ],
    "materials" : [
        {
            "doubleSided" : true,
            "name" : "Material",
            "pbrMetallicRoughness" : {
                "baseColorFactor" : [
                    0.8000000715255737,
                    0.41120415925979614,
                    0,
                    1
                ],
                "metallicFactor" : 0.5050504803657532,
                "roughnessFactor" : 0.495959609746933
            }
        },
        {
            "doubleSided" : true,
            "name" : "Material.001",
            "pbrMetallicRoughness" : {
                "baseColorFactor" : [
                    1,
                    0,
                    0.00227346527390182,
                    1
                ],
                "metallicFactor" : 0.4898989796638489,
                "roughnessFactor" : 0.5010101199150085
            }
        },
        {
            "doubleSided" : true,
            "name" : "Material.002",
            "pbrMetallicRoughness" : {
                "baseColorFactor" : [
                    0,
                    0,
                    0,
                    1
                ],
                "metallicFactor" : 0.5,
                "roughnessFactor" : 0.495959609746933
            }
        }
    ],
    "meshes" : [
        {
            "name" : "Cube",
            "primitives" : [
                {
                    "attributes" : {
                        "POSITION" : 0,
                        "NORMAL" : 1,
                        "TEXCOORD_0" : 2
                    },
                    "indices" : 3,
                    "material" : 0
                }
            ]
        },
        {
            "name" : "Cube.001",
            "primitives" : [
                {
                    "attributes" : {
                        "POSITION" : 4,
                        "NORMAL" : 5,
                        "TEXCOORD_0" : 6
                    },
                    "indices" : 3,
                    "material" : 1
                }
            ]
        },
        {
            "name" : "Cube.002",
            "primitives" : [
                {
                    "attributes" : {
                        "POSITION" : 7,
                        "NORMAL" : 8,
                        "TEXCOORD_0" : 9
                    },
                    "indices" : 3,
                    "material" : 2
                }
            ]
        }
    ],
    "accessors" : [
        {
            "bufferView" : 0,
            "componentType" : 5126,
            "count" : 24,
            "max" : [
                1,
                1,
                1
            ],
            "min" : [
                -1,
                -1,
                -1
            ],
            "type" : "VEC3"
        },
        {
            "bufferView" : 1,
            "componentType" : 5126,
            "count" : 24,
            "type" : "VEC3"
        },
        {
            "bufferView" : 2,
            "componentType" : 5126,
            "count" : 24,
            "type" : "VEC2"
        },
        {
            "bufferView" : 3,
            "componentType" : 5123,
            "count" : 36,
            "type" : "SCALAR"
        },
        {
            "bufferView" : 4,
            "componentType" : 5126,
            "count" : 24,
            "max" : [
                1,
                1,
                1
            ],
            "min" : [
                -1,
                -1,
                -1
            ],
            "type" : "VEC3"
        },
        {
            "bufferView" : 5,
            "componentType" : 5126,
            "count" : 24,
            "type" : "VEC3"
        },
        {
            "bufferView" : 6,
            "componentType" : 5126,
            "count" : 24,
            "type" : "VEC2"
        },
        {
            "bufferView" : 7,
            "componentType" : 5126,
            "count" : 24,
            "max" : [
                1,
                1,
                1
            ],
            "min" : [
                -1,
                -1,
                -1
            ],
            "type" : "VEC3"
        },
        {
            "bufferView" : 8,
            "componentType" : 5126,
            "count" : 24,
            "type" : "VEC3"
        },
        {
            "bufferView" : 9,
            "componentType" : 5126,
            "count" : 24,
            "type" : "VEC2"
        }
    ],
    "bufferViews" : [
        {
            "buffer" : 0,
            "byteLength" : 288,
            "byteOffset" : 0
        },
        {
            "buffer" : 0,
            "byteLength" : 288,
            "byteOffset" : 288
        },
        {
            "buffer" : 0,
            "byteLength" : 192,
            "byteOffset" : 576
        },
        {
            "buffer" : 0,
            "byteLength" : 72,
            "byteOffset" : 768
        },
        {
            "buffer" : 0,
            "byteLength" : 288,
            "byteOffset" : 840
        },
        {
            "buffer" : 0,
            "byteLength" : 288,
            "byteOffset" : 1128
        },
        {
            "buffer" : 0,
            "byteLength" : 192,
            "byteOffset" : 1416
        },
        {
            "buffer" : 0,
            "byteLength" : 288,
            "byteOffset" : 1608
        },
        {
            "buffer" : 0,
            "byteLength" : 288,
            "byteOffset" : 1896
        },
        {
            "buffer" : 0,
            "byteLength" : 192,
            "byteOffset" : 2184
        }
    ],
    "buffers" : [
        {
            "byteLength" : 2376,
            "uri" : "data:application/octet-stream;base64,"
        }
    ]
}
